<svg style="width:410px; height:1000px;" enable-background="new 0 0 410 1000" viewBox="0 0 410 1000" xmlns="http://www.w3.org/2000/svg">
    <path d="m391.5 852c0-10.3 8.2-18.7 18.5-19v-833h-410v833c10.3.3 18.5 8.7 18.5 19s-8.2 18.7-18.5 19v129h3.3c4.9-9.5 14.8-16 26.2-16s21.3 6.5 26.2 16h6.1c4.9-9.5 14.8-16 26.2-16s21.3 6.5 26.2 16h6.1c4.9-9.5 14.8-16 26.2-16s21.3 6.5 26.2 16h6.1c4.9-9.5 14.8-16 26.2-16s21.3 6.5 26.2 16h6.1c4.9-9.5 14.8-16 26.2-16s21.3 6.5 26.2 16h6.1c4.9-9.5 14.8-16 26.2-16s21.3 6.5 26.2 16h6.1c4.9-9.5 14.8-16 26.2-16s21.3 6.5 26.2 16h3.3v-129c-10.3-.3-18.5-8.7-18.5-19z"
          fill="#fff"/>
</svg>